<svg xmlns="http://www.w3.org/2000/svg" viewBox="0 0 1000 1000" fill="none">
  <defs>
    <radialGradient id="retreatGlowTeal" cx="50%" cy="50%" r="52%">
      <stop offset="0%" stop-color="#7ECFC0" stop-opacity="0.2"/>
      <stop offset="100%" stop-color="#7ECFC0" stop-opacity="0"/>
    </radialGradient>
    <radialGradient id="retreatGlowGold" cx="50%" cy="50%" r="50%">
      <stop offset="0%" stop-color="#D4AF37" stop-opacity="0.16"/>
      <stop offset="100%" stop-color="#D4AF37" stop-opacity="0"/>
    </radialGradient>
  </defs>

  <circle cx="500" cy="500" r="472" fill="url(#retreatGlowTeal)"/>
  <circle cx="500" cy="500" r="396" fill="url(#retreatGlowGold)"/>

  <g stroke="#7ECFC0" stroke-opacity="0.2" stroke-width="1.1" fill="none">
    <circle cx="500" cy="500" r="430"/>
    <circle cx="500" cy="500" r="350"/>
    <circle cx="500" cy="500" r="270"/>
  </g>

  <!-- Crescent without solid fill -->
  <path d="M664 384a168 168 0 1 1-216-160a146 146 0 1 0 216 160Z" stroke="#D4AF37" stroke-opacity="0.24" stroke-width="1.3"/>
  <circle cx="514" cy="384" r="118" stroke="#7ECFC0" stroke-opacity="0.18" stroke-width="1"/>

  <!-- Lotus petals -->
  <g stroke="#D4AF37" stroke-opacity="0.22" stroke-width="1.05" fill="none">
    <path d="M500 548C550 612 566 680 500 790C434 680 450 612 500 548Z"/>
    <path d="M436 564C484 618 492 680 430 756C386 672 390 612 436 564Z"/>
    <path d="M564 564C610 612 614 672 570 756C508 680 516 618 564 564Z"/>
    <path d="M376 592C424 636 428 692 360 744C322 676 330 622 376 592Z"/>
    <path d="M624 592C670 622 678 676 640 744C572 692 576 636 624 592Z"/>
  </g>

  <!-- Ground waves -->
  <g stroke="#7ECFC0" stroke-opacity="0.2" stroke-width="1.15" fill="none">
    <path d="M170 664C280 600 390 568 500 568C610 568 720 600 830 664"/>
    <path d="M150 722C266 656 382 622 500 622C618 622 734 656 850 722"/>
    <path d="M182 780C286 716 392 684 500 684C608 684 714 716 818 780"/>
  </g>

  <g stroke="#D4AF37" stroke-opacity="0.14" stroke-width="0.9">
    <line x1="500" y1="96" x2="500" y2="904"/>
    <line x1="96" y1="500" x2="904" y2="500"/>
  </g>

  <g fill="#D4AF37" fill-opacity="0.34">
    <circle cx="278" cy="248" r="4"/>
    <circle cx="352" cy="204" r="3"/>
    <circle cx="460" cy="170" r="3.5"/>
    <circle cx="648" cy="212" r="3.5"/>
    <circle cx="718" cy="260" r="4"/>
    <circle cx="500" cy="500" r="5"/>
  </g>
</svg>
